<?xml version="1.0" standalone="no"?>
<!DOCTYPE svg PUBLIC "-//W3C//DTD SVG 20010904//EN"
 "http://www.w3.org/TR/2001/REC-SVG-20010904/DTD/svg10.dtd">
<svg version="1.0" xmlns="http://www.w3.org/2000/svg"
 width="300.000000pt" height="300.000000pt" viewBox="0 0 300.000000 300.000000"
 preserveAspectRatio="xMidYMid meet">

<g transform="translate(0.000000,300.000000) scale(0.100000,-0.100000)"
fill="#000000" stroke="none">
<path d="M1842 2404 c-28 -77 -76 -133 -171 -196 -181 -123 -244 -248 -167
-331 48 -51 112 -44 146 16 14 25 13 30 -3 59 l-18 31 23 -15 c14 -9 27 -32
32 -57 5 -22 13 -41 18 -41 24 0 98 54 98 72 0 4 -12 8 -26 8 -24 0 -23 2 17
33 43 32 70 70 84 116 l7 23 -44 -26 c-65 -38 -76 -32 -31 17 22 23 52 68 67
100 24 49 28 66 24 119 -3 35 -11 78 -19 97 l-15 35 -22 -60z"/>
<path d="M1809 1934 c-57 -100 -150 -140 -254 -109 -47 13 -59 21 -70 48 -7
18 -24 42 -38 55 -27 26 -35 21 -60 -40 l-16 -37 35 -20 c53 -32 40 -65 -15
-36 -17 8 -35 15 -41 15 -18 0 -11 -28 9 -35 28 -9 46 -34 34 -46 -8 -8 -20
-6 -42 6 -30 15 -51 13 -51 -4 0 -5 14 -14 30 -21 39 -16 41 -45 3 -36 -48 11
-56 11 -60 0 -2 -6 8 -16 23 -22 46 -22 12 -48 -36 -28 -11 4 -24 -9 -45 -46
-38 -65 -87 -100 -190 -136 -76 -27 -80 -30 -83 -61 -5 -46 19 -68 101 -93 56
-17 84 -19 141 -14 39 3 235 21 436 40 l365 34 -164 1 c-90 0 -162 4 -159 7 4
3 55 14 115 24 l108 19 -140 -5 c-77 -3 -151 -7 -164 -10 -19 -4 -22 -2 -17
11 3 9 6 22 6 29 0 7 16 20 35 29 27 13 40 14 65 5 37 -12 76 0 220 73 113 56
180 103 180 125 0 9 -15 46 -34 83 -19 36 -44 87 -56 113 -26 58 -96 138 -120
138 -12 0 -30 -20 -51 -56z m-18 -184 c-21 -33 -42 -71 -45 -85 -4 -15 -21
-32 -45 -44 -21 -11 -85 -55 -142 -98 -57 -43 -119 -88 -138 -99 -34 -21 -34
-21 -67 -2 -24 14 -43 18 -71 13 -32 -5 -23 2 52 40 113 58 250 149 384 254
57 45 105 81 107 81 2 0 -14 -27 -35 -60z"/>
<path d="M650 1050 c0 -6 7 -13 15 -16 11 -5 15 -23 15 -79 0 -56 -4 -74 -15
-79 -34 -13 -12 -26 46 -26 54 0 64 3 90 29 24 24 29 38 29 76 0 38 -5 52 -29
76 -26 26 -36 29 -90 29 -35 0 -61 -4 -61 -10z m124 -36 c21 -21 21 -97 0
-118 -8 -9 -26 -16 -40 -16 -23 0 -24 2 -24 75 0 73 1 75 24 75 14 0 32 -7 40
-16z"/>
<path d="M927 1053 c-2 -5 -17 -45 -31 -90 -15 -46 -32 -85 -37 -88 -20 -13
-7 -25 26 -25 33 0 46 12 25 25 -5 3 -7 12 -3 21 4 10 17 14 42 12 33 -3 36
-5 33 -30 -2 -25 0 -28 28 -28 28 0 42 21 22 34 -4 2 -21 43 -37 90 -22 63
-34 86 -47 86 -9 0 -19 -3 -21 -7z m38 -85 c6 -25 4 -28 -18 -28 -24 0 -25 1
-14 35 11 38 22 36 32 -7z"/>
<path d="M1060 1045 c0 -8 5 -15 10 -15 6 0 10 -31 10 -74 0 -41 -4 -78 -10
-81 -22 -13 -8 -25 30 -25 40 0 49 7 29 27 -5 5 -9 33 -7 62 l3 52 41 -68 c22
-37 48 -69 57 -71 15 -3 17 7 17 86 0 71 3 91 15 96 29 11 15 26 -25 26 -28 0
-40 -4 -40 -14 0 -8 5 -16 11 -18 6 -2 9 -26 7 -58 l-3 -55 -44 73 c-38 63
-47 72 -72 72 -19 0 -29 -5 -29 -15z"/>
<path d="M1335 1048 c-44 -26 -60 -74 -44 -132 15 -56 76 -81 134 -54 20 9 25
18 25 50 0 36 -2 38 -30 38 -16 0 -30 -4 -30 -10 0 -5 5 -10 10 -10 6 0 10
-11 10 -25 0 -20 -5 -25 -25 -25 -36 0 -65 33 -65 75 0 42 29 75 66 75 17 0
28 -6 31 -20 3 -11 12 -20 19 -20 18 0 18 34 0 49 -21 18 -78 23 -101 9z"/>
<path d="M1550 1045 c0 -8 5 -15 10 -15 6 0 10 -32 10 -75 0 -43 -4 -75 -10
-75 -5 0 -10 -7 -10 -15 0 -11 11 -15 40 -15 38 0 52 12 30 25 -16 10 -12 65
5 65 19 0 47 -54 39 -74 -5 -13 2 -16 35 -16 41 0 53 12 28 27 -6 4 -25 25
-40 46 l-28 37 27 35 c14 19 30 35 35 35 5 0 9 7 9 15 0 11 -11 15 -36 15 -28
0 -35 -3 -32 -18 3 -20 -27 -72 -42 -72 -6 0 -10 14 -10 30 0 17 5 30 10 30 6
0 10 7 10 15 0 11 -11 15 -40 15 -29 0 -40 -4 -40 -15z"/>
<path d="M1750 1050 c0 -6 7 -13 15 -16 11 -5 15 -23 15 -79 0 -56 -4 -74 -15
-79 -29 -11 -15 -26 25 -26 29 0 40 4 40 15 0 8 -4 15 -10 15 -5 0 -10 14 -10
30 0 29 2 30 45 30 43 0 45 -1 45 -29 0 -17 -4 -33 -10 -36 -22 -13 -8 -25 30
-25 38 0 52 12 30 25 -5 3 -10 39 -10 80 0 41 5 77 10 80 22 13 8 25 -30 25
-29 0 -40 -4 -40 -15 0 -8 5 -15 10 -15 6 0 10 -13 10 -30 0 -29 -2 -30 -45
-30 -43 0 -45 1 -45 30 0 17 5 30 10 30 6 0 10 7 10 15 0 11 -11 15 -40 15
-22 0 -40 -5 -40 -10z"/>
<path d="M2028 1045 c-60 -33 -59 -149 2 -180 43 -22 68 -19 101 14 24 24 29
38 29 76 0 38 -5 52 -29 76 -32 32 -62 36 -103 14z m81 -29 c19 -22 23 -78 9
-106 -17 -31 -53 -37 -79 -14 -24 22 -26 90 -2 116 19 21 56 24 72 4z"/>
<path d="M2235 981 c-14 -43 -32 -87 -40 -97 -22 -28 -18 -34 20 -34 33 0 34
1 29 30 -6 30 -6 30 36 30 42 0 42 0 37 -30 -6 -29 -5 -30 28 -30 38 0 42 5
21 29 -7 9 -26 53 -41 99 -36 111 -54 111 -90 3z m55 17 c0 -7 3 -23 6 -35 5
-19 2 -23 -19 -23 -24 0 -25 1 -14 35 10 34 27 48 27 23z"/>
<path d="M999 684 c-12 -14 -10 -19 15 -39 29 -23 23 -40 -11 -29 -15 6 -16 5
-5 -7 9 -10 17 -11 30 -3 26 17 27 44 3 51 -12 3 -21 12 -21 20 0 10 6 12 21
8 15 -5 19 -4 15 4 -10 16 -31 14 -47 -5z"/>
<path d="M1090 650 c0 -27 5 -50 10 -50 6 0 10 23 10 50 0 28 -4 50 -10 50 -5
0 -10 -22 -10 -50z"/>
<path d="M1162 650 c1 -35 3 -43 5 -22 5 40 12 40 38 2 11 -16 23 -30 28 -30
4 0 6 24 5 53 -1 35 -2 42 -5 20 -2 -18 -6 -33 -9 -33 -2 0 -18 15 -34 33
l-29 32 1 -55z"/>
<path d="M1296 684 c-31 -30 -9 -84 35 -84 10 0 19 4 19 9 0 5 -9 7 -19 4 -27
-7 -46 29 -31 58 9 16 18 19 37 14 16 -4 22 -2 18 5 -9 15 -41 12 -59 -6z"/>
<path d="M1400 650 l0 -50 33 1 c30 2 30 2 5 6 -34 5 -37 30 -5 36 l22 4 -22
2 c-35 2 -31 39 5 44 25 4 25 4 -5 6 l-33 1 0 -50z"/>
<path d="M1567 694 c-4 -4 -7 -12 -7 -18 0 -6 4 -5 9 3 9 14 31 7 31 -9 0 -5
-12 -22 -26 -39 l-26 -31 34 1 c25 1 27 3 10 6 l-24 5 22 23 c12 13 20 31 18
41 -3 19 -29 30 -41 18z"/>
<path d="M1660 675 c-12 -31 3 -75 25 -75 8 0 21 11 27 25 13 30 -3 75 -27 75
-9 0 -20 -11 -25 -25z m45 -5 c8 -26 -3 -62 -18 -57 -7 2 -13 14 -15 26 -7 45
20 71 33 31z"/>
<path d="M1767 693 c-4 -3 -7 -11 -7 -17 0 -6 5 -5 12 2 17 17 28 15 28 -6 0
-11 -9 -27 -20 -37 -28 -26 -25 -35 13 -34 23 1 26 3 10 6 l-23 4 22 29 c17
24 19 32 8 45 -13 16 -32 20 -43 8z"/>
<path d="M1869 683 c-13 -17 -13 -17 4 -4 13 10 21 11 29 3 7 -7 2 -21 -17
-46 l-27 -36 33 1 c25 1 28 3 11 6 l-24 5 22 23 c24 26 24 58 -1 63 -9 1 -22
-5 -30 -15z"/>
</g>
</svg>
